<svg xmlns="http://www.w3.org/2000/svg" width="151" height="45" fill="none">
  <path fill="#fff" d="m43.464 38.347-.712-14.963V3.95c0-2.655-1.36-3.821-4.146-3.821-4.21 0-8.42 1.295-12.502 2.98v1.295h6.284v30.509c-2.397 1.036-4.47 1.878-6.931 1.878-6.154 0-8.875-3.044-8.875-10.817V3.757C16.582 1.1 15.287 0 12.632 0 8.485 0 4.145 1.36 0 3.11v1.295h6.283V28.89c0 10.299 4.405 14.51 12.178 14.51 5.117 0 9.91-2.397 13.991-6.09v.519c.324 3.821 2.462 5.246 7.19 5.246 3.11 0 7.32-1.813 9.91-4.016l-.193-.712zm57.585-6.737c-1.943 0-3.303 1.75-3.303 3.692 0 2.073.971 3.24 3.109 3.24 1.23 0 2.202-.454 2.72-1.102l-.065-.13c-.712.26-1.36.324-1.813.324-1.296 0-2.203-.777-2.332-2.656v-.064h4.534v-.324c-.065-1.684-.907-2.98-2.85-2.98M99.3 34.46c.065-1.813.713-2.461 1.684-2.461.972 0 1.361.907 1.361 2.461zm-3.562 3.045-.065-2.397v-1.166c0-1.684-.713-2.332-1.944-2.332-.906 0-1.813.518-2.461 1.166-.324-.842-.907-1.166-1.814-1.166-.842 0-1.62.454-2.267 1.037v-.454c0-.453-.194-.583-.648-.583-.647 0-1.36.195-2.008.518v.195h.972v2.785l-.065 2.397c0 .324-.13.518-.518.648l-.389.064v.195h3.498c0-.065.065-.13.065-.195l-.518-.13c-.324-.064-.454-.258-.454-.582l-.064-2.397v-2.137a2.5 2.5 0 0 1 1.166-.26c.971 0 1.425.454 1.425 1.62v.777l-.065 2.397c0 .324-.13.518-.518.648l-.195.064v.195h3.498c0-.065.065-.13.065-.195l-.518-.13c-.324-.064-.454-.258-.454-.582l-.065-2.397v-1.166c0-.324-.064-.648-.129-.907.453-.194.842-.324 1.296-.324.971 0 1.425.454 1.425 1.62v.777l-.065 2.397c0 .324-.13.518-.518.648l-.39.064v.195h3.499c0-.065.065-.13.065-.195l-.519-.13c-.194-.129-.324-.258-.324-.582m-13.02.194-.13-2.397v-3.109c0-.453-.194-.583-.648-.583-.647 0-1.36.195-2.008.454v.194h.972v4.858c-.389.194-.712.324-1.101.324-.972 0-1.425-.518-1.425-1.749v-3.563c0-.453-.195-.583-.648-.583-.648 0-1.36.195-2.008.519v.194h.972v3.886c0 1.62.712 2.332 1.943 2.332.842 0 1.555-.388 2.202-.971v.064c.065.584.389.843 1.166.843.518 0 1.166-.324 1.555-.648v-.13h-.842zm41.197 0-.13-2.526v-1.684c0-1.555-1.101-1.944-2.138-1.944-1.101 0-2.267.648-2.785 1.102l.13.13c.453-.26 1.101-.39 1.684-.39.777 0 1.49.324 1.49 1.296v1.295l-1.101.13c-1.296.13-2.656.583-2.656 2.008 0 .777.583 1.425 1.619 1.425.907 0 1.555-.518 2.138-1.166v.194c0 .713.388.972 1.166.972.453 0 1.166-.259 1.554-.648v-.13h-.971zm-1.749-.583c-.454.26-.842.389-1.231.389-.583 0-.972-.324-.972-1.037 0-.583.389-.907 1.166-1.1.324-.066.713-.13.972-.195v1.943zm-5.571-7.643c0-.195-.777-.907-.972-.907s-.906.712-.906.907c0 .194.712.907.906.907s.972-.778.972-.907m-.065 8.032-.065-2.397v-2.85c0-.454-.194-.583-.647-.583-.648 0-1.361.194-2.008.518v.195h.971v2.785l-.064 2.396c0 .324-.13.519-.519.648l-.388.065v.194h3.498c0-.064.064-.13.064-.194l-.518-.13c-.194-.194-.324-.323-.324-.647m-4.534 0-.065-2.397v-1.166c0-1.684-.777-2.332-2.008-2.332-.907 0-1.749.454-2.396 1.101v-.453c0-.454-.195-.583-.648-.583-.648 0-1.36.194-2.008.518v.195h.971v2.785l-.064 2.396c0 .324-.13.519-.519.648l-.388.065v.194h3.498c0-.064.064-.13.064-.194l-.518-.13c-.324-.064-.453-.259-.453-.583l-.065-2.396V33.1c.453-.194.907-.324 1.295-.324.972 0 1.49.454 1.49 1.62v.777l-.064 2.396c0 .324-.13.519-.519.648l-.388.065v.194h3.498c0-.064.064-.13.064-.194l-.518-.13c-.129-.194-.259-.323-.259-.647m26.817-19.044v-.713c0-.453-.194-.583-.648-.583-.648 0-1.36.195-2.008.519v.194h.972v2.785l-.065 2.397c0 .324-.13.518-.518.648l-.389.064v.195h3.498c0-.065.065-.13.065-.195l-.518-.13c-.324-.064-.454-.258-.454-.582l-.065-2.397V18.72c.324-.194.778-.389 1.296-.389.388 0 .777.065 1.166.26l.388-1.296c-.259-.065-.453-.13-.777-.13-.777 0-1.554.648-1.943 1.296m-53.31 0c.454-.26 1.101-.389 1.684-.389.778 0 1.49.324 1.49 1.296v1.23l-1.101.13c-1.296.13-2.656.583-2.656 2.008 0 .777.583 1.425 1.62 1.425.906 0 1.554-.518 2.137-1.166v.194c0 .713.389.972 1.166.972.453 0 1.166-.259 1.554-.648v-.13h-.971l-.13-2.46v-1.685c0-1.554-1.1-1.943-2.137-1.943-1.101 0-2.267.648-2.785 1.101zm3.174 4.21c-.453.26-.842.389-1.23.389-.584 0-.972-.324-.972-1.037 0-.582.388-.906 1.166-1.1.323-.065.712-.13.971-.195v1.943zm61.601.648h-.907l-.129-2.397v-3.109c0-.453-.195-.583-.648-.583-.648 0-1.36.194-2.008.454v.194h.971v4.858c-.388.194-.712.324-1.101.324-.971 0-1.425-.518-1.425-1.749v-3.563c0-.453-.194-.583-.647-.583-.648 0-1.361.195-2.009.519v.194h.972v3.886c0 1.62.713 2.332 1.943 2.332.842 0 1.555-.388 2.203-.971v.064c.064.583.388.843 1.166.843.518 0 1.166-.324 1.554-.648zm-18.461-6.154c-1.878 0-3.368 1.814-3.368 3.563 0 2.267 1.101 3.303 3.239 3.303 1.943 0 3.368-1.878 3.368-3.562 0-2.202-1.166-3.304-3.239-3.304m0 6.543c-1.295 0-1.619-1.36-1.619-3.174 0-1.75.324-2.98 1.49-2.98 1.36 0 1.619 1.749 1.619 3.174-.065 1.814-.389 2.98-1.49 2.98m-36.339-5.83h.972v2.656l-.13 5.182c0 .324-.13.518-.518.647l-.388.065v.194h3.562c0-.064.065-.129.065-.194l-.518-.13c-.324-.064-.454-.258-.454-.582v-1.75c.26.066.519.066.907.066 1.943 0 3.563-1.166 3.563-3.628 0-2.202-.907-3.239-2.591-3.239-.777 0-1.425.389-1.879.843v-.26c0-.453-.194-.583-.647-.583-.648 0-1.36.195-2.008.519v.194zm2.656.453c.26-.13.713-.259 1.101-.259 1.102 0 1.62.583 1.62 2.591 0 1.814-.518 2.98-1.75 2.98-.453 0-.712-.065-.97-.194V18.33m-15.028 4.73-.064-2.397v-1.166c0-1.684-.778-2.332-2.008-2.332-.907 0-1.75.454-2.397 1.102v-.454c0-.453-.195-.583-.648-.583-.648 0-1.36.194-2.008.518v.195h.972v2.785l-.065 2.397c0 .324-.13.518-.518.647l-.389.065v.195h3.498c0-.065.065-.13.065-.195l-.519-.13c-.323-.064-.453-.258-.453-.582l-.065-2.397v-2.073c.454-.194.907-.324 1.296-.324.971 0 1.49.454 1.49 1.62v.777l-.065 2.397c0 .324-.13.518-.518.647l-.389.065v.195h3.498c0-.065.065-.13.065-.195l-.519-.13c-.194-.129-.259-.323-.259-.647m36.015.259h-.907l-.129-2.591v-5.506c0-.453-.194-.583-.648-.583-.648 0-1.36.195-2.008.518v.195h.972v1.943c-.259-.065-.583-.065-1.037-.065-1.878 0-3.433 1.425-3.433 3.628 0 2.72 1.361 3.174 2.656 3.174.713 0 1.36-.324 1.814-.778.064.518.388.777 1.166.777.518 0 1.166-.323 1.554-.647zm-2.72-.324a2.7 2.7 0 0 1-1.037.194c-.971 0-1.749-.777-1.749-2.785 0-1.878.583-2.85 1.814-2.85q.583 0 .972.194zm-5.83-2.461c0-2.267-1.166-3.369-3.239-3.369-1.878 0-3.368 1.814-3.368 3.563 0 2.267 1.101 3.303 3.239 3.303 2.008.065 3.368-1.813 3.368-3.497m-4.793 0c0-1.75.323-2.98 1.489-2.98 1.361 0 1.62 1.749 1.62 3.174 0 1.814-.389 2.98-1.49 2.98-1.296 0-1.619-1.36-1.619-3.174m18.655-3.369c-.777 0-1.425.389-1.879.843v-.26c0-.453-.194-.583-.647-.583-.648 0-1.361.195-2.008.519v.194h.971v2.656l-.129 5.182c0 .324-.13.518-.519.647l-.388.065v.194h3.562c0-.064.065-.129.065-.194l-.518-.13c-.324-.064-.453-.258-.453-.582v-1.75c.259.066.518.066.906.066 1.944 0 3.563-1.166 3.563-3.628.13-2.202-.777-3.239-2.526-3.239m-.842 6.478c-.454 0-.713-.065-.972-.194V18.33a2.75 2.75 0 0 1 1.101-.259c1.101 0 1.62.583 1.62 2.591 0 1.75-.583 2.98-1.749 2.98M100.79 9.716c.712 0 1.36-.324 1.814-.777.064.518.388.777 1.166.777.518 0 1.166-.324 1.554-.647v-.13h-.907l-.129-2.591V.842c0-.453-.195-.583-.648-.583-.648 0-1.36.194-2.008.518v.195h.972v1.943c-.259-.065-.583-.065-1.037-.065-1.878 0-3.433 1.425-3.433 3.628.065 2.72 1.425 3.238 2.656 3.238m.842-6.477q.583 0 .972.194V8.68a2.7 2.7 0 0 1-1.037.194c-.971 0-1.749-.777-1.749-2.785 0-1.879.583-2.85 1.814-2.85M87.9 6.219c0-2.268-1.166-3.369-3.24-3.369-1.877 0-3.367 1.814-3.367 3.563 0 2.267 1.1 3.303 3.238 3.303 2.008.065 3.369-1.813 3.369-3.498m-3.24 3.173c-1.295 0-1.618-1.36-1.618-3.174 0-1.749.323-2.98 1.49-2.98 1.36 0 1.619 1.75 1.619 3.175 0 1.813-.389 2.98-1.49 2.98m5.377-3.109-.065 2.397c0 .324-.13.518-.518.648l-.388.064v.195h3.498c0-.065.064-.13.064-.195l-.518-.13c-.324-.064-.453-.258-.453-.582l-.065-2.397V4.21c.453-.194.907-.324 1.295-.324.972 0 1.49.454 1.49 1.62v.777l-.065 2.397c0 .324-.13.518-.518.648l-.388.064v.195h3.497c0-.065.065-.13.065-.195l-.518-.13c-.324-.064-.453-.258-.453-.582l-.065-2.397V5.117c0-1.684-.778-2.332-2.008-2.332-.907 0-1.75.454-2.397 1.101v-.453c0-.453-.194-.583-.648-.583-.647 0-1.36.194-2.008.518v.195h.972v2.72zm-13.02 0-.064 2.397c0 .324-.13.518-.519.648l-.388.064v.195h3.498c0-.065.065-.13.065-.195l-.519-.13c-.324-.064-.453-.258-.453-.582l-.065-2.397V3.886h1.425v-.518h-1.425v-.777c0-1.036.13-2.008 1.166-2.008.518 0 .907.713 1.36 1.36.389-.13.713-.388.713-.777 0-.583-.907-.907-2.073-.907-1.295 0-2.785 1.101-2.785 2.462v.712l-.972.13v.323h.972v2.397zM59.14 33.1c-1.296 0-5.571 4.146-5.571 5.57 0 1.361 4.275 5.7 5.57 5.7 1.296 0 5.636-4.404 5.636-5.7.065-1.36-4.34-5.57-5.635-5.57"/>
</svg>
