<svg xmlns="http://www.w3.org/2000/svg" width="1122" height="365" fill="none">
  <mask id="a" width="964" height="158" x="79" y="93" maskUnits="userSpaceOnUse" style="mask-type:luminance">
    <path fill="#fff" d="M1043 250.333V93H79v157.333z"/>
  </mask>
  <g mask="url(#a)">
    <mask id="b" width="90" height="156" x="79" y="93" maskUnits="userSpaceOnUse" style="mask-type:luminance">
      <path fill="#fff" d="M168.656 93.36V249H79.453V93.36z"/>
    </mask>
    <g mask="url(#b)">
      <mask id="c" width="90" height="156" x="79" y="93" maskUnits="userSpaceOnUse" style="mask-type:luminance">
        <path fill="#fff" d="M135.776 93.36c-10.302 0-18.916 3.312-25.823 9.937-6.911 6.625-10.364 14.995-10.364 25.052v7.599H89.287c-3.047 0-5.443.995-7.193 3.005-1.667 1.891-2.557 4.026-2.64 6.443v.792c.083 2.5 1.057 4.671 2.864 6.52 1.932 1.974 4.245 2.927 6.969 2.927h10.057v83.469c0 2.745.974 5.057 2.927 6.969q2.928 2.866 7.13 2.865c2.662 0 4.959-.954 6.912-2.865 1.969-1.912 2.922-4.224 2.922-6.969v-83.469h19.916c2.641 0 4.953-.974 6.907-2.927 1.932-1.948 2.927-4.244 2.927-6.906 0-2.724-.995-5.057-2.927-7.031-1.891-1.891-4.125-2.802-6.646-2.802h-19.933v-7.599c0-4.453 1.547-8.089 4.636-10.891 3.088-2.807 6.969-4.229 11.661-4.229h23.042c2.661 0 4.958-.974 6.927-2.906 1.953-1.969 2.906-4.266 2.906-6.906 0-2.823-.953-5.204-2.843-7.151-1.933-1.954-4.25-2.928-6.99-2.928z"/>
      </mask>
      <g mask="url(#c)">
        <mask id="d" width="91" height="156" x="79" y="93" maskUnits="userSpaceOnUse" style="mask-type:luminance">
          <path fill="#fff" d="M169.667 249V93H79v156z"/>
        </mask>
        <g mask="url(#d)">
          <mask id="e" width="90" height="156" x="79" y="93" maskUnits="userSpaceOnUse" style="mask-type:luminance">
            <path fill="#fff" d="M168.656 93.36V249H79.453V93.36z"/>
          </mask>
          <g mask="url(#e)">
            <mask id="f" width="90" height="156" x="79" y="93" maskUnits="userSpaceOnUse" style="mask-type:luminance">
              <path fill="#fff" d="M135.776 93.36c-10.302 0-18.916 3.312-25.823 9.937-6.911 6.625-10.364 14.995-10.364 25.052v7.599H89.287c-3.047 0-5.443.995-7.193 3.005-1.667 1.891-2.557 4.026-2.64 6.443v.792c.083 2.5 1.057 4.671 2.864 6.52 1.932 1.974 4.245 2.927 6.969 2.927h10.057v83.469c0 2.745.974 5.057 2.927 6.969q2.928 2.866 7.13 2.865c2.662 0 4.959-.954 6.912-2.865 1.969-1.912 2.922-4.224 2.922-6.969v-83.469h19.916c2.641 0 4.953-.974 6.907-2.927 1.932-1.948 2.927-4.244 2.927-6.906 0-2.724-.995-5.057-2.927-7.031-1.891-1.891-4.125-2.802-6.646-2.802h-19.933v-7.599c0-4.453 1.547-8.089 4.636-10.891 3.088-2.807 6.969-4.229 11.661-4.229h23.042c2.661 0 4.958-.974 6.927-2.906 1.953-1.969 2.906-4.266 2.906-6.906 0-2.823-.953-5.204-2.843-7.151-1.933-1.954-4.25-2.928-6.99-2.928z"/>
            </mask>
            <g mask="url(#f)">
              <path fill="#231f20" d="M79.453 93.36h89.203v155.406H79.453z"/>
            </g>
          </g>
        </g>
      </g>
    </g>
    <mask id="g" width="41" height="38" x="248" y="186" maskUnits="userSpaceOnUse" style="mask-type:luminance">
      <path fill="#fff" d="M288.333 186.891v36.776h-39.828v-36.776z"/>
    </mask>
    <g mask="url(#g)">
      <mask id="h" width="41" height="38" x="248" y="186" maskUnits="userSpaceOnUse" style="mask-type:luminance">
        <path fill="#fff" d="M258.583 186.891h19.911c2.646 0 4.959.958 6.912 2.864 1.948 1.891 2.927 4.229 2.927 6.974v16.74c0 2.724-.979 5.078-2.87 7.073-1.927 2.01-4.245 3.005-6.969 3.005h-20.156c-2.739 0-5.036-.974-6.969-2.927-1.927-1.948-2.864-4.266-2.864-6.927v-16.964c0-2.745.979-5.062 2.927-6.974 1.953-1.906 4.328-2.864 7.151-2.864"/>
      </mask>
      <g mask="url(#h)">
        <mask id="i" width="41" height="38" x="248" y="186" maskUnits="userSpaceOnUse" style="mask-type:luminance">
          <path fill="#fff" d="M288.333 223.666v-37.333h-40v37.333z"/>
        </mask>
        <g mask="url(#i)">
          <mask id="j" width="41" height="38" x="248" y="186" maskUnits="userSpaceOnUse" style="mask-type:luminance">
            <path fill="#fff" d="M288.333 186.891v36.651h-39.828v-36.651z"/>
          </mask>
          <g mask="url(#j)">
            <mask id="k" width="41" height="38" x="248" y="186" maskUnits="userSpaceOnUse" style="mask-type:luminance">
              <path fill="#fff" d="M258.583 186.891h19.911c2.646 0 4.959.958 6.912 2.864 1.948 1.891 2.927 4.229 2.927 6.974v16.74c0 2.724-.979 5.078-2.87 7.073-1.927 2.01-4.245 3.005-6.969 3.005h-20.156c-2.739 0-5.036-.974-6.969-2.927-1.927-1.948-2.864-4.266-2.864-6.927v-16.964c0-2.745.979-5.062 2.927-6.974 1.953-1.906 4.328-2.864 7.151-2.864"/>
            </mask>
            <g mask="url(#k)">
              <path fill="#231f20" d="M248.505 186.891h39.797v36.645h-39.797z"/>
            </g>
          </g>
        </g>
      </g>
    </g>
    <mask id="l" width="101" height="114" x="363" y="135" maskUnits="userSpaceOnUse" style="mask-type:luminance">
      <path fill="#fff" d="M463.219 135.953V249h-99.636V135.953z"/>
    </mask>
    <g mask="url(#l)">
      <mask id="m" width="101" height="114" x="363" y="135" maskUnits="userSpaceOnUse" style="mask-type:luminance">
        <path fill="#fff" d="m442.562 216.271-.593-8.307c-.058-2.808-1.052-5.141-2.922-7.032-1.849-1.869-4.188-2.802-6.912-2.802h-38.786c-2.745 0-5.057.974-6.99 2.865-1.932 1.89-2.864 4.245-2.864 6.969v11.01c0 2.641.974 4.937 2.948 6.911 1.927 1.948 4.265 2.901 6.927 2.901h27.734zm-49.192-38.276h38.562c2.115 0 5.183.484 9.167 1.422l-.224-13.943c0-2.719-.974-5.036-2.885-6.969-1.891-1.927-4.245-2.864-6.969-2.864h-37.448c-2.662 0-4.958-.974-6.927-2.907-1.953-1.968-2.948-4.265-2.948-6.927 0-2.724.974-5.036 2.864-6.968 1.891-1.933 4.266-2.886 7.011-2.886h37.406c8.125 0 15.057 2.865 20.787 8.557 5.729 5.688 8.734 12.677 8.979 20.964l2.458 73.635c0 2.745-.974 5.063-2.927 6.969-1.948 1.932-4.245 2.865-6.906 2.865-2.802 0-5.203-.953-7.13-2.865-1.974-1.885-2.928-4.224-2.928-6.969l-16.64 9.813H393.37c-8.271 0-15.318-2.88-21.11-8.651s-8.677-12.781-8.677-21.052v-11.5c0-8.188 2.907-15.198 8.735-21.011 5.833-5.828 12.843-8.734 21.052-8.734"/>
      </mask>
      <g mask="url(#m)">
        <mask id="n" width="102" height="114" x="363" y="135" maskUnits="userSpaceOnUse" style="mask-type:luminance">
          <path fill="#fff" d="M464.333 249V135.667H363V249z"/>
        </mask>
        <g mask="url(#n)">
          <mask id="o" width="101" height="114" x="363" y="135" maskUnits="userSpaceOnUse" style="mask-type:luminance">
            <path fill="#fff" d="M463.219 135.953V249h-99.636V135.953z"/>
          </mask>
          <g mask="url(#o)">
            <mask id="p" width="101" height="114" x="363" y="135" maskUnits="userSpaceOnUse" style="mask-type:luminance">
              <path fill="#fff" d="m442.562 216.271-.593-8.307c-.058-2.808-1.052-5.141-2.922-7.032-1.849-1.869-4.188-2.802-6.912-2.802h-38.786c-2.745 0-5.057.974-6.99 2.865-1.932 1.89-2.864 4.245-2.864 6.969v11.01c0 2.641.974 4.937 2.948 6.911 1.927 1.948 4.265 2.901 6.927 2.901h27.734zm-49.192-38.276h38.562c2.115 0 5.183.484 9.167 1.422l-.224-13.943c0-2.719-.974-5.036-2.885-6.969-1.891-1.927-4.245-2.864-6.969-2.864h-37.448c-2.662 0-4.958-.974-6.927-2.907-1.953-1.968-2.948-4.265-2.948-6.927 0-2.724.974-5.036 2.864-6.968 1.891-1.933 4.266-2.886 7.011-2.886h37.406c8.125 0 15.057 2.865 20.787 8.557 5.729 5.688 8.734 12.677 8.979 20.964l2.458 73.635c0 2.745-.974 5.063-2.927 6.969-1.948 1.932-4.245 2.865-6.906 2.865-2.802 0-5.203-.953-7.13-2.865-1.974-1.885-2.928-4.224-2.928-6.969l-16.64 9.813H393.37c-8.271 0-15.318-2.88-21.11-8.651s-8.677-12.781-8.677-21.052v-11.5c0-8.188 2.907-15.198 8.735-21.011 5.833-5.828 12.843-8.734 21.052-8.734"/>
            </mask>
            <g mask="url(#p)">
              <path fill="#231f20" d="M363.583 135.953h99.636v112.87h-99.636z"/>
            </g>
          </g>
        </g>
      </g>
    </g>
    <mask id="q" width="41" height="38" x="538" y="186" maskUnits="userSpaceOnUse" style="mask-type:luminance">
      <path fill="#fff" d="M578.083 186.891v36.776h-39.937v-36.776z"/>
    </mask>
    <g mask="url(#q)">
      <mask id="r" width="40" height="38" x="538" y="186" maskUnits="userSpaceOnUse" style="mask-type:luminance">
        <path fill="#fff" d="M548.224 186.891h19.911c2.662 0 4.958.958 6.906 2.864 1.953 1.891 2.948 4.229 2.948 6.974v16.74c0 2.724-.979 5.078-2.864 7.073-1.933 2.01-4.25 3.005-6.969 3.005h-20.177c-2.724 0-5.042-.974-6.969-2.927-1.932-1.948-2.864-4.266-2.864-6.927v-16.964c0-2.745.973-5.062 2.921-6.974 1.954-1.906 4.329-2.864 7.157-2.864"/>
      </mask>
      <g mask="url(#r)">
        <mask id="s" width="42" height="38" x="537" y="186" maskUnits="userSpaceOnUse" style="mask-type:luminance">
          <path fill="#fff" d="M579 223.666v-37.333h-41.333v37.333z"/>
        </mask>
        <g mask="url(#s)">
          <mask id="t" width="41" height="38" x="538" y="186" maskUnits="userSpaceOnUse" style="mask-type:luminance">
            <path fill="#fff" d="M578.083 186.891v36.651h-39.937v-36.651z"/>
          </mask>
          <g mask="url(#t)">
            <mask id="u" width="40" height="38" x="538" y="186" maskUnits="userSpaceOnUse" style="mask-type:luminance">
              <path fill="#fff" d="M548.224 186.891h19.911c2.662 0 4.958.958 6.906 2.864 1.953 1.891 2.948 4.229 2.948 6.974v16.74c0 2.724-.979 5.078-2.864 7.073-1.933 2.01-4.25 3.005-6.969 3.005h-20.177c-2.724 0-5.042-.974-6.969-2.927-1.932-1.948-2.864-4.266-2.864-6.927v-16.964c0-2.745.973-5.062 2.921-6.974 1.954-1.906 4.329-2.864 7.157-2.864"/>
            </mask>
            <g mask="url(#u)">
              <path fill="#231f20" d="M538.146 186.891h39.792v36.645h-39.792z"/>
            </g>
          </g>
        </g>
      </g>
    </g>
    <mask id="v" width="101" height="114" x="653" y="135" maskUnits="userSpaceOnUse" style="mask-type:luminance">
      <path fill="#fff" d="M753.208 135.964V249h-99.542V135.964z"/>
    </mask>
    <g mask="url(#v)">
      <mask id="w" width="101" height="114" x="653" y="135" maskUnits="userSpaceOnUse" style="mask-type:luminance">
        <path fill="#fff" d="M743.13 248.933h-42.016c-7.416 0-13.739-2.214-18.958-6.662l-19.078-16.64c-6.099-5.063-9.146-11.928-9.146-20.605v-25.625c-.323-8.349 3.13-15.619 10.302-21.781l17.208-14.87c5.547-4.531 11.48-6.786 17.782-6.786h44.151c2.724 0 5.036.974 6.968 2.864 1.933 1.933 2.865 4.245 2.865 6.969 0 2.802-.953 5.162-2.865 7.031-1.911 1.87-4.244 2.803-6.968 2.803h-42.261c-2.661 0-5.182 1.057-7.62 3.171l-15.786 13.469c-2.583 2.177-3.865 5.099-3.865 8.761v23.994c0 2.578 1.016 4.776 3.047 6.563l17.334 14.75c2.177 1.953 5.062 2.906 8.656 2.906h40.25c2.661 0 4.958.953 6.911 2.865 1.969 1.932 2.943 4.244 2.943 6.968 0 2.745-.953 5.058-2.865 6.969-1.911 1.912-4.244 2.865-6.968 2.865"/>
      </mask>
      <g mask="url(#w)">
        <mask id="x" width="101" height="114" x="653" y="135" maskUnits="userSpaceOnUse" style="mask-type:luminance">
          <path fill="#fff" d="M753.666 249V135.667h-100V249z"/>
        </mask>
        <g mask="url(#x)">
          <mask id="y" width="101" height="114" x="653" y="135" maskUnits="userSpaceOnUse" style="mask-type:luminance">
            <path fill="#fff" d="M753.208 135.964V249h-99.542V135.964z"/>
          </mask>
          <g mask="url(#y)">
            <mask id="z" width="101" height="114" x="653" y="135" maskUnits="userSpaceOnUse" style="mask-type:luminance">
              <path fill="#fff" d="M743.13 248.933h-42.016c-7.416 0-13.739-2.214-18.958-6.662l-19.078-16.64c-6.099-5.063-9.146-11.928-9.146-20.605v-25.625c-.323-8.349 3.13-15.619 10.302-21.781l17.208-14.87c5.547-4.531 11.48-6.786 17.782-6.786h44.151c2.724 0 5.036.974 6.968 2.864 1.933 1.933 2.865 4.245 2.865 6.969 0 2.802-.953 5.162-2.865 7.031-1.911 1.87-4.244 2.803-6.968 2.803h-42.261c-2.661 0-5.182 1.057-7.62 3.171l-15.786 13.469c-2.583 2.177-3.865 5.099-3.865 8.761v23.994c0 2.578 1.016 4.776 3.047 6.563l17.334 14.75c2.177 1.953 5.062 2.906 8.656 2.906h40.25c2.661 0 4.958.953 6.911 2.865 1.969 1.932 2.943 4.244 2.943 6.968 0 2.745-.953 5.058-2.865 6.969-1.911 1.912-4.244 2.865-6.968 2.865"/>
            </mask>
            <g mask="url(#z)">
              <path fill="#231f20" d="M653.911 135.964h99.297v112.875h-99.297z"/>
            </g>
          </g>
        </g>
      </g>
    </g>
    <mask id="A" width="41" height="38" x="827" y="186" maskUnits="userSpaceOnUse" style="mask-type:luminance">
      <path fill="#fff" d="M867.719 186.891v36.776h-39.938v-36.776z"/>
    </mask>
    <g mask="url(#A)">
      <mask id="B" width="41" height="38" x="827" y="186" maskUnits="userSpaceOnUse" style="mask-type:luminance">
        <path fill="#fff" d="M837.86 186.891h19.911c2.662 0 4.958.958 6.912 2.864 1.948 1.891 2.921 4.229 2.921 6.974v16.74c0 2.724-.973 5.078-2.864 7.073-1.927 2.01-4.245 3.005-6.969 3.005h-20.156c-2.719 0-5.037-.974-6.969-2.927-1.927-1.948-2.864-4.266-2.864-6.927v-16.964c0-2.745.974-5.062 2.927-6.974 1.948-1.906 4.328-2.864 7.151-2.864"/>
      </mask>
      <g mask="url(#B)">
        <mask id="C" width="42" height="38" x="827" y="186" maskUnits="userSpaceOnUse" style="mask-type:luminance">
          <path fill="#fff" d="M868.334 223.666v-37.333h-41.333v37.333z"/>
        </mask>
        <g mask="url(#C)">
          <mask id="D" width="41" height="38" x="827" y="186" maskUnits="userSpaceOnUse" style="mask-type:luminance">
            <path fill="#fff" d="M867.72 186.891v36.651h-39.938v-36.651z"/>
          </mask>
          <g mask="url(#D)">
            <mask id="E" width="41" height="38" x="827" y="186" maskUnits="userSpaceOnUse" style="mask-type:luminance">
              <path fill="#fff" d="M837.861 186.891h19.911c2.662 0 4.958.958 6.912 2.864 1.948 1.891 2.921 4.229 2.921 6.974v16.74c0 2.724-.973 5.078-2.864 7.073-1.927 2.01-4.245 3.005-6.969 3.005h-20.156c-2.719 0-5.037-.974-6.969-2.927-1.927-1.948-2.864-4.266-2.864-6.927v-16.964c0-2.745.974-5.062 2.927-6.974 1.948-1.906 4.328-2.864 7.151-2.864"/>
            </mask>
            <g mask="url(#E)">
              <path fill="#231f20" d="M827.782 186.891h39.797v36.645h-39.797z"/>
            </g>
          </g>
        </g>
      </g>
    </g>
    <mask id="F" width="100" height="114" x="943" y="135" maskUnits="userSpaceOnUse" style="mask-type:luminance">
      <path fill="#fff" d="M1042.38 135.974V249h-99.281V135.974z"/>
    </mask>
    <g mask="url(#F)">
      <mask id="G" width="100" height="114" x="943" y="135" maskUnits="userSpaceOnUse" style="mask-type:luminance">
        <path fill="#fff" d="M1005.86 155.864c2.34 0 4.98 1.219 7.97 3.636l5.75 5.041c2.25 1.948 3.37 4.756 3.37 8.433v13.692h-59.716v-15.239c0-3.125 1.282-5.646 3.86-7.599l5.75-4.813q3.751-3.171 8.291-3.172zm-26.105-19.89c-6.583 0-12.515 2.172-17.922 6.541l-8.208 6.443c-3.047 2.417-5.547 5.828-7.542 10.198-1.989 4.37-2.984 7.823-2.984 10.406v45.084c0 3.27.917 6.869 2.745 10.77 1.828 3.881 4.14 6.948 6.864 9.12l8.776 7.724c1.792 1.563 4.594 3.068 8.355 4.511 3.796 1.442 7.416 2.151 10.828 2.151h51.873c2.58 0 4.86-.974 6.87-2.907 1.93-1.906 2.92-4.14 2.97-6.682v-.427c-.07-2.641-1.02-4.896-2.93-6.766-1.95-1.911-4.25-2.843-6.91-2.843h-50.571c-2.808 0-5.771-1.219-8.88-3.636l-5.75-4.818c-2.886-2.338-4.329-5.203-4.329-8.536v-5.75h69.53c2.66 0 4.96-.974 6.91-2.922 1.91-1.891 2.88-4.125 2.93-6.687v-24.443c-.09-9.203-2.75-16.172-7.95-20.844l-7.38-7.031c-6.19-5.792-12.74-8.656-19.66-8.656z"/>
      </mask>
      <g mask="url(#G)">
        <mask id="H" width="100" height="114" x="943" y="135" maskUnits="userSpaceOnUse" style="mask-type:luminance">
          <path fill="#fff" d="M1043 248.999V135.666H943v113.333z"/>
        </mask>
        <g mask="url(#H)">
          <mask id="I" width="100" height="114" x="943" y="135" maskUnits="userSpaceOnUse" style="mask-type:luminance">
            <path fill="#fff" d="M1042.38 135.974V249h-99.281V135.974z"/>
          </mask>
          <g mask="url(#I)">
            <mask id="J" width="100" height="114" x="943" y="135" maskUnits="userSpaceOnUse" style="mask-type:luminance">
              <path fill="#fff" d="M1005.86 155.864c2.34 0 4.98 1.219 7.97 3.636l5.75 5.041c2.25 1.948 3.37 4.756 3.37 8.433v13.692h-59.716v-15.239c0-3.125 1.282-5.646 3.86-7.599l5.75-4.813q3.751-3.171 8.291-3.172zm-26.105-19.89c-6.583 0-12.515 2.172-17.922 6.541l-8.208 6.443c-3.047 2.417-5.547 5.828-7.542 10.198-1.989 4.37-2.984 7.823-2.984 10.406v45.084c0 3.27.917 6.869 2.745 10.77 1.828 3.881 4.14 6.948 6.864 9.12l8.776 7.724c1.792 1.563 4.594 3.068 8.355 4.511 3.796 1.442 7.416 2.151 10.828 2.151h51.873c2.58 0 4.86-.974 6.87-2.907 1.93-1.906 2.92-4.14 2.97-6.682v-.427c-.07-2.641-1.02-4.896-2.93-6.766-1.95-1.911-4.25-2.843-6.91-2.843h-50.571c-2.808 0-5.771-1.219-8.88-3.636l-5.75-4.818c-2.886-2.338-4.329-5.203-4.329-8.536v-5.75h69.53c2.66 0 4.96-.974 6.91-2.922 1.91-1.891 2.88-4.125 2.93-6.687v-24.443c-.09-9.203-2.75-16.172-7.95-20.844l-7.38-7.031c-6.19-5.792-12.74-8.656-19.66-8.656z"/>
            </mask>
            <g mask="url(#J)">
              <path fill="#231f20" d="M943.099 135.974h99.281v112.849h-99.281z"/>
            </g>
          </g>
        </g>
      </g>
    </g>
  </g>
</svg>
