<svg xmlns="http://www.w3.org/2000/svg" width="686" height="322" fill="none">
  <g clip-path="url(#a)">
    <path fill="#fff" d="M0 0h686v322H0z"/>
    <g clip-path="url(#b)">
      <path fill="#1C3F94" d="M695.599-3.271H-6.693v330.05h702.292V-3.271Z"/>
      <mask id="c" width="819" height="615" x="-63" y="-150" maskUnits="userSpaceOnUse" style="mask-type:luminance">
        <path fill="#fff" d="M756-150H-63v615h819v-615Z"/>
      </mask>
      <g mask="url(#c)">
        <path fill="#fff" d="M117.643 180.887V92.399c0-10.607-5.145-14.85-15.739-14.85-16.647 0-33.9 5.456-50.244 12.426v5.151h24.82v97.277c0 40.911 17.555 57.579 48.428 57.579 20.279 0 39.347-9.395 55.389-24.244v2.122c1.21 15.151 9.686 20.909 28.451 20.909 12.41 0 29.058-7.274 39.348-16.062l-.606-2.726h-23.305l-2.725-59.396V93.308c0-10.607-5.447-15.152-16.344-15.152-16.647 0-33.293 5.151-49.638 11.819v5.151h24.819v121.217c-9.382 4.242-17.858 7.577-27.543 7.577-24.516 0-35.11-12.123-35.11-43.033Z"/>
      </g>
      <mask id="d" width="819" height="615" x="-63" y="-150" maskUnits="userSpaceOnUse" style="mask-type:luminance">
        <path fill="#fff" d="M756-150H-63v615h819v-615Z"/>
      </mask>
      <g mask="url(#d)">
        <path fill="#fff" d="M531.484 226.666c-2.365 0-3.766-1.257-3.766-4.011 0-2.222 1.497-3.624 4.586-4.349 1.158-.289 2.751-.483 3.957-.675v7.393c-1.785 1.11-3.33 1.642-4.777 1.642Zm.385-9.761c-5.164.627-10.52 2.368-10.52 8.021 0 3.14 2.412 5.557 6.466 5.557 3.523 0 6.274-1.933 8.446-4.638v.725c.097 2.706 1.448 3.817 4.537 3.817 1.883 0 4.538-1.111 6.275-2.562l-.049-.434h-3.764l-.435-9.906v-6.717c0-6.088-4.295-7.635-8.543-7.635-4.44 0-9.073 2.658-11.004 4.301l.435.628c1.786-1.014 4.295-1.644 6.564-1.644 3.135 0 5.984 1.401 5.984 5.219v4.832l-4.392.436Zm-21.525-18.556c.87 0 3.766-3.092 3.766-3.72 0-.773-3.04-3.673-3.766-3.673-.723 0-3.666 2.803-3.666 3.673 0 .772 2.894 3.72 3.666 3.72Zm3.476 18.508v-11.404c0-1.692-.821-2.369-2.51-2.369-2.655 0-5.406.87-8.011 1.981v.823h3.956v10.969l-.192 9.567c-.049 1.4-.484 2.077-2.027 2.512l-1.449.339c0 .241 0 .483.098.773h13.947c.097-.241.146-.58.146-.773l-2.076-.484c-1.302-.338-1.737-1.063-1.737-2.368l-.145-9.566Zm-35.376-11.404c0-1.692-.821-2.369-2.51-2.369-2.654 0-5.406.87-8.011 1.981v.823h3.957v10.969l-.193 9.567c-.048 1.4-.483 2.077-2.026 2.512l-1.447.339c0 .241 0 .483.096.773h13.948c.097-.241.145-.58.145-.773l-2.074-.484c-1.303-.338-1.739-1.063-1.739-2.368l-.144-9.567v-8.311c1.883-.869 3.57-1.207 5.116-1.207 3.86 0 5.79 1.786 5.838 6.522v2.997l-.192 9.567c-.048 1.4-.483 2.077-2.027 2.512l-1.447.339c0 .241 0 .483.096.773h13.948c.096-.241.145-.58.145-.773l-2.075-.484c-1.302-.338-1.737-1.063-1.737-2.368l-.145-9.567v-4.591c0-6.572-2.993-9.181-7.915-9.181-3.571 0-7.047 1.885-9.604 4.253v-1.884h-.003Zm-26.304-.774c3.861 0 5.309 3.576 5.309 9.809h-11.921c.145-7.248 2.849-9.809 6.612-9.809Zm11.438 11.453v-1.161c0-6.668-3.282-11.887-11.052-11.887-7.819 0-13.176 6.862-13.176 14.69 0 8.359 3.862 12.756 12.308 12.756 4.777 0 8.783-1.884 10.762-4.445l-.338-.484a21.142 21.142 0 0 1-7.288 1.305c-5.26 0-8.783-2.996-9.217-10.583v-.193h18.001v.002Zm-72.393-10.244v10.969l-.194 9.567c-.048 1.4-.482 2.077-2.026 2.512l-1.447.339c0 .241 0 .483.096.773h13.947c.099-.241.147-.58.147-.773l-2.075-.484c-1.304-.338-1.738-1.063-1.738-2.368l-.145-9.567v-8.457c1.545-.724 3.136-1.062 4.585-1.062 3.861 0 5.599 1.786 5.647 6.522v2.997l-.192 9.567c-.048 1.4-.483 2.077-2.026 2.512l-1.448.339c0 .24 0 .483.097.772h13.947c.096-.24.146-.579.146-.772l-2.076-.484c-1.302-.338-1.737-1.063-1.737-2.368l-.144-9.567v-4.591c0-1.401-.147-2.609-.386-3.672 1.736-.822 3.378-1.256 5.018-1.256 3.861 0 5.598 1.786 5.647 6.522v2.997l-.192 9.567c-.048 1.4-.483 2.077-2.026 2.512l-1.449.339c0 .24 0 .483.097.772h13.996a2.38 2.38 0 0 0 .145-.772l-2.123-.484c-1.302-.338-1.737-1.063-1.737-2.368l-.144-9.567v-4.591c0-6.572-2.799-9.181-7.724-9.181-3.716 0-7.142 2.029-9.748 4.639-1.158-3.286-3.668-4.639-7.143-4.639-3.379 0-6.515 1.885-9.025 4.204v-1.835c0-1.692-.82-2.369-2.509-2.369-2.655 0-5.405.87-8.012 1.981v.823h3.951v.002Zm-28.234 13.675v-14.11c0-1.692-.82-2.369-2.509-2.369-2.655 0-5.405.87-8.011 1.981v.823h3.956v15.511c0 6.524 2.799 9.181 7.722 9.181 3.234 0 6.274-1.498 8.833-3.866v.338c.192 2.416 1.544 3.335 4.537 3.335 1.979 0 4.632-1.16 6.274-2.562l-.097-.434h-3.717l-.434-9.471v-12.322c0-1.691-.868-2.417-2.607-2.417-2.654 0-5.308.823-7.913 1.885v.823h3.957v19.328c-1.497.676-2.848 1.208-4.392 1.208-3.909-.001-5.599-1.934-5.599-6.862Z"/>
      </g>
      <mask id="e" width="819" height="615" x="-63" y="-150" maskUnits="userSpaceOnUse" style="mask-type:luminance">
        <path fill="#fff" d="M756-150H-63v615h819v-615Z"/>
      </mask>
      <g mask="url(#e)">
        <path fill="#fff" d="M627.092 162.259v-14.111c0-1.692-.822-2.368-2.511-2.368-2.654 0-5.405.87-8.01 1.981v.821h3.956v15.512c0 6.523 2.799 9.18 7.723 9.18 3.233 0 6.274-1.498 8.831-3.866v.339c.193 2.414 1.545 3.334 4.538 3.334 1.98 0 4.633-1.16 6.273-2.562l-.096-.434h-3.716l-.434-9.471v-12.323c0-1.691-.87-2.416-2.607-2.416-2.655 0-5.31.822-7.914 1.885v.821h3.956v19.33c-1.495.676-2.847 1.207-4.391 1.207-3.91.001-5.598-1.932-5.598-6.859Zm-31.178-13.677v10.97l-.192 9.567c-.049 1.401-.483 2.078-2.026 2.514l-1.449.338c0 .241 0 .483.097.773h13.948c.096-.242.145-.58.145-.773l-2.075-.484c-1.303-.338-1.737-1.063-1.737-2.369l-.144-9.567v-7.635c1.35-.821 3.135-1.498 5.115-1.498 1.642 0 3.184.338 4.632 1.111l1.642-5.17c-.917-.338-1.834-.58-3.09-.58-3.764 0-6.756 2.464-8.299 5.17v-2.802c0-1.692-.822-2.368-2.51-2.368-2.656 0-5.406.87-8.012 1.981v.821l3.955.001Zm-15.541 11.404c0 7.153-1.448 11.743-5.79 11.743-5.02 0-6.372-5.508-6.372-12.708 0-6.91 1.303-11.742 5.791-11.742 5.358-.001 6.371 6.957 6.371 12.707Zm6.998-.772c0-9.133-4.632-13.434-12.838-13.434-7.528 0-13.273 7.2-13.273 14.255 0 9.084 4.491 13.24 12.838 13.24 7.772 0 13.273-7.393 13.273-14.061Zm-38.464.338c0 7.103-2.173 11.79-6.95 11.79-1.786 0-2.896-.29-3.957-.724l-.097-12.275v-8.021c1.11-.387 2.799-1.063 4.489-1.063 4.245 0 6.515 2.416 6.515 10.293Zm6.852-.919c0-8.746-3.522-12.805-10.328-12.805-3.185 0-5.599 1.595-7.528 3.383v-1.063c0-1.692-.821-2.368-2.51-2.368-2.654 0-5.405.87-8.011 1.981v.821h3.957v10.486l-.386 20.683c-.048 1.401-.484 2.077-2.027 2.512l-1.448.338c0 .241 0 .483.098.773h14.236c.098-.241.146-.579.146-.773l-2.075-.483c-1.304-.338-1.738-1.064-1.738-2.368l-.096-6.863c1.013.147 2.027.242 3.523.242 7.817.001 14.187-4.589 14.187-14.496Zm-46.475 11.163c-3.765 0-7.047-3.141-7.047-11.163 0-7.346 2.269-11.211 7.287-11.211 1.545 0 2.752.338 3.909.869v20.731c-1.205.435-2.654.774-4.149.774Zm8.735 3.286c1.979 0 4.585-1.16 6.274-2.562l-.097-.434h-3.717l-.482-10.341v-21.841c0-1.691-.821-2.368-2.51-2.368-2.655 0-5.405.869-8.011 2.03v.772h3.957v7.828c-1.062-.144-2.413-.241-4.102-.241-7.577 0-13.61 5.605-13.61 14.448 0 10.679 5.454 12.709 10.472 12.709 2.799 0 5.357-1.401 7.287-3.044.244 2.175 1.643 3.044 4.539 3.044Zm-34.654-13.096c0 7.153-1.447 11.743-5.791 11.743-5.018 0-6.371-5.508-6.371-12.708 0-6.91 1.303-11.742 5.792-11.742 5.357-.001 6.37 6.957 6.37 12.707Zm6.999-.772c0-9.133-4.633-13.434-12.838-13.434-7.529 0-13.273 7.2-13.273 14.255 0 9.084 4.489 13.24 12.839 13.24 7.77 0 13.272-7.393 13.272-14.061Zm-38.466.338c0 7.103-2.17 11.79-6.949 11.79-1.785 0-2.895-.29-3.957-.724l-.097-12.275v-8.021c1.111-.387 2.799-1.063 4.489-1.063 4.246 0 6.514 2.416 6.514 10.293Zm6.853-.919c0-8.746-3.521-12.805-10.327-12.805-3.186 0-5.599 1.595-7.529 3.383v-1.063c0-1.692-.821-2.368-2.509-2.368-2.656 0-5.405.87-8.012 1.981v.821h3.958v10.486l-.386 20.683c-.049 1.401-.484 2.077-2.027 2.512l-1.449.338c0 .241 0 .483.098.773h14.237c.096-.241.145-.579.145-.773l-2.075-.483c-1.303-.338-1.737-1.064-1.737-2.368l-.096-6.863c1.013.147 2.026.242 3.521.242 7.819.001 14.188-4.589 14.188-14.496Zm-60.134 10.728c-2.365 0-3.764-1.258-3.764-4.011 0-2.223 1.496-3.624 4.585-4.349 1.159-.29 2.751-.483 3.957-.676v7.393c-1.784 1.111-3.33 1.643-4.778 1.643Zm.386-9.761c-5.164.628-10.52 2.369-10.52 8.022 0 3.14 2.412 5.556 6.466 5.556 3.523 0 6.274-1.933 8.446-4.638v.726c.097 2.706 1.448 3.817 4.537 3.817 1.883 0 4.538-1.111 6.275-2.562l-.048-.434h-3.765l-.436-9.906v-6.717c0-6.088-4.293-7.635-8.542-7.635-4.44 0-9.073 2.658-11.004 4.301l.435.628c1.785-1.014 4.295-1.643 6.563-1.643 3.137 0 5.985 1.402 5.985 5.219v4.832l-4.392.434Zm-35.376-11.452c0-1.692-.82-2.368-2.51-2.368-2.654 0-5.404.87-8.012 1.981v.821h3.958v10.97l-.192 9.567c-.048 1.401-.483 2.078-2.027 2.514l-1.448.338c0 .241 0 .483.097.773h13.947c.098-.242.146-.58.146-.773l-2.075-.484c-1.302-.338-1.737-1.063-1.737-2.369l-.145-9.567v-8.312c1.882-.869 3.571-1.207 5.115-1.207 3.862 0 5.792 1.787 5.841 6.523v2.996l-.194 9.567c-.048 1.401-.482 2.078-2.026 2.514l-1.447.338c0 .241 0 .483.096.773h13.948c.097-.242.146-.581.146-.773l-2.075-.484c-1.303-.338-1.739-1.063-1.739-2.369l-.144-9.567v-4.591c0-6.571-2.992-9.181-7.915-9.181-3.57 0-7.046 1.885-9.604 4.253v-1.883h-.004Z"/>
      </g>
      <mask id="f" width="819" height="615" x="-63" y="-150" maskUnits="userSpaceOnUse" style="mask-type:luminance">
        <path fill="#fff" d="M756-150H-63v615h819v-615Z"/>
      </mask>
      <g mask="url(#f)">
        <path fill="#fff" d="M454.698 112.836c-3.765 0-7.046-3.142-7.046-11.162 0-7.346 2.268-11.212 7.287-11.212 1.545 0 2.751.338 3.909.87v20.73c-1.206.436-2.654.774-4.15.774Zm8.736 3.285c1.979 0 4.585-1.159 6.275-2.561l-.097-.434h-3.716l-.484-10.341V80.943c0-1.691-.82-2.368-2.509-2.368-2.655 0-5.405.87-8.011 2.03v.774h3.957v7.828c-1.062-.146-2.412-.242-4.102-.242-7.577 0-13.611 5.605-13.611 14.448 0 10.678 5.454 12.708 10.473 12.708 2.799 0 5.356-1.401 7.288-3.044.241 2.175 1.642 3.044 4.537 3.044Zm-47.926-24.933c0-1.691-.82-2.368-2.508-2.368-2.656 0-5.405.87-8.012 1.98v.822h3.957v10.969l-.192 9.568c-.049 1.401-.483 2.078-2.027 2.513l-1.447.338c0 .242 0 .484.096.773h13.949a2.41 2.41 0 0 0 .144-.773l-2.075-.483c-1.302-.338-1.736-1.063-1.736-2.368l-.147-9.568v-8.31c1.883-.871 3.572-1.21 5.117-1.21 3.861 0 5.791 1.79 5.839 6.525v2.995l-.192 9.568c-.048 1.401-.483 2.078-2.027 2.513l-1.448.338c0 .242 0 .484.097.773h13.948c.098-.241.146-.579.146-.773l-2.076-.483c-1.302-.338-1.737-1.063-1.737-2.368l-.145-9.568v-4.59c0-6.572-2.993-9.18-7.914-9.18-3.572 0-7.047 1.883-9.606 4.25v-1.883h-.004Zm-22.103 11.838c0 7.151-1.448 11.741-5.792 11.741-5.018 0-6.371-5.508-6.371-12.708 0-6.91 1.304-11.742 5.792-11.742 5.357 0 6.371 6.96 6.371 12.709Zm6.998-.773c0-9.133-4.633-13.433-12.838-13.433-7.529 0-13.273 7.2-13.273 14.255 0 9.084 4.489 13.24 12.838 13.24 7.77 0 13.273-7.395 13.273-14.062ZM376.466 82.2c0-2.416-3.669-3.625-8.253-3.625-5.262 0-11.101 4.35-11.101 9.665v2.706l-3.861.434v1.595h3.861v9.616l-.193 9.568c-.048 1.401-.483 2.078-2.027 2.513l-1.448.338c0 .242 0 .484.098.773h13.996c.097-.241.145-.579.145-.773l-2.075-.483c-1.303-.338-1.737-1.063-1.737-2.368l-.146-9.568v-9.616h5.743v-2.03h-5.743v-3.043c0-4.156.532-7.876 4.73-7.876 2.172 0 3.668 2.754 5.31 5.314 1.445-.628 2.701-1.45 2.701-3.14Z"/>
      </g>
      <mask id="g" width="819" height="615" x="-63" y="-150" maskUnits="userSpaceOnUse" style="mask-type:luminance">
        <path fill="#fff" d="M756-150H-63v615h819v-615Z"/>
      </mask>
      <g mask="url(#g)">
        <path fill="#fff" d="M308.77 231.123c0-5.477-17.23-22.181-22.427-22.181-5.196 0-22.153 16.43-22.153 22.181 0 5.477 16.957 22.728 22.153 22.728 5.197 0 22.427-17.526 22.427-22.728Z"/>
      </g>
    </g>
  </g>
  <defs>
    <clipPath id="a">
      <path fill="#fff" d="M0 0h686v322H0z"/>
    </clipPath>
    <clipPath id="b">
      <path fill="#fff" d="M-63-150h819v615H-63z"/>
    </clipPath>
  </defs>
</svg>
