<svg width="306" height="50" viewBox="0 0 306 50" fill="none" xmlns="http://www.w3.org/2000/svg">
<path d="M25.2037 0H17.8712C14.6017 0 11.8718 1.04895 9.68153 3.14685C7.49129 5.24476 6.38029 7.91481 6.38029 11.1252V13.541H3.11079C2.15851 13.541 1.39668 13.8589 0.825311 14.4946C0.285685 15.0985 0 15.7661 0 16.5289V16.7832C0.0317427 17.5779 0.34917 18.2772 0.920539 18.8493C1.52365 19.4851 2.25373 19.7711 3.14253 19.7711H6.34855V46.3128C6.34855 47.171 6.66597 47.9339 7.26909 48.5378C7.90394 49.1418 8.63402 49.4596 9.52282 49.4596C10.3799 49.4596 11.11 49.1418 11.7131 48.5378C12.3479 47.9339 12.6336 47.2028 12.6336 46.3128V19.8029H18.9504C19.7757 19.8029 20.5375 19.4851 21.1407 18.8811C21.7438 18.2772 22.0612 17.5461 22.0612 16.6879C22.0612 15.8296 21.7438 15.0668 21.1407 14.4628C20.5375 13.8589 19.8392 13.5728 19.0456 13.5728C19.0139 13.5728 18.9822 13.5728 18.9822 13.5728H12.7288V11.157C12.7288 9.72664 13.205 8.58233 14.189 7.69231C15.173 6.80229 16.411 6.35728 17.9029 6.35728H25.2037C26.0608 6.35728 26.7909 6.03942 27.394 5.43547C28.0288 4.79975 28.3145 4.06866 28.3145 3.24221C28.3145 2.35219 27.9971 1.58932 27.4257 0.953592C26.8226 0.286078 26.0925 0 25.2037 0ZM63.168 29.7521H56.8512C55.9624 29.7521 55.2006 30.0381 54.5023 30.6739C53.8992 31.2778 53.5817 32.0407 53.5817 32.8989V38.3026C53.5817 39.1291 53.8992 39.8919 54.5023 40.4959C55.1371 41.0998 55.8672 41.4177 56.7243 41.4177H63.1363C64.0251 41.4177 64.7552 41.0998 65.3583 40.4641C65.9614 39.8284 66.2788 39.0655 66.2788 38.2072V32.8989C66.2788 32.0089 65.9614 31.2778 65.3583 30.6739C64.7552 30.0699 63.9934 29.7521 63.168 29.7521ZM118.178 16.2746C116.369 14.4628 114.147 13.541 111.576 13.541H99.7357C98.8786 13.541 98.1168 13.8589 97.5137 14.4628C96.9106 15.0985 96.5931 15.8296 96.5931 16.6879C96.5931 17.5143 96.8788 18.2454 97.5137 18.8811C98.1168 19.4851 98.8469 19.8029 99.7039 19.8029H111.607C112.496 19.8029 113.226 20.1208 113.829 20.7247C114.433 21.3605 114.75 22.0915 114.75 22.9498L114.813 27.3681C113.544 27.082 112.56 26.9231 111.893 26.9231H99.6404C97.0375 26.9231 94.8155 27.8449 92.9427 29.6567C91.1016 31.5003 90.1811 33.7254 90.1811 36.3319V39.9873C90.1811 42.6256 91.1016 44.8506 92.9427 46.6942C94.7838 48.5378 97.0058 49.4596 99.6404 49.4596H110.274L115.544 46.3446C115.544 47.2346 115.829 47.9657 116.464 48.5696C117.067 49.1736 117.829 49.4914 118.718 49.4914C119.575 49.4914 120.305 49.1736 120.908 48.5696C121.511 47.9657 121.829 47.2028 121.829 46.3446L121.035 22.9498C120.94 20.3115 119.988 18.0865 118.178 16.2746ZM108.37 43.0706H99.577C98.7517 43.0706 97.9898 42.7527 97.3867 42.1488C96.7836 41.513 96.4662 40.7819 96.4662 39.9555V36.459C96.4662 35.569 96.7836 34.8379 97.3867 34.2339C97.9898 33.63 98.7516 33.3121 99.6087 33.3121H111.957C112.814 33.3121 113.576 33.5982 114.147 34.2022C114.718 34.8061 115.036 35.5372 115.067 36.4272L115.258 39.0655L108.37 43.0706ZM155.095 29.7203H148.778C147.889 29.7203 147.128 30.0064 146.493 30.6421C145.89 31.246 145.572 32.0089 145.572 32.8671V38.2708C145.572 39.0973 145.89 39.8601 146.493 40.4641C147.128 41.068 147.858 41.3859 148.715 41.3859H155.063C155.952 41.3859 156.682 41.068 157.285 40.4323C157.888 39.7966 158.206 39.0337 158.206 38.1755V32.8671C158.206 31.9771 157.92 31.246 157.285 30.6421C156.682 30.0381 155.952 29.7203 155.095 29.7203ZM189.885 25.1113L194.9 20.8201C195.662 20.1526 196.456 19.8029 197.313 19.8029H210.74C211.629 19.8029 212.359 19.5168 212.962 18.9129C213.565 18.3408 213.883 17.5779 213.883 16.6879C213.883 16.37 213.851 16.0521 213.756 15.7661C213.629 15.3846 213.438 15.035 213.184 14.7171C213.121 14.6217 213.057 14.5582 212.962 14.4946C212.327 13.8907 211.597 13.5728 210.74 13.5728H196.71C194.71 13.5728 192.805 14.3039 191.06 15.7343L185.6 20.4069C183.314 22.3776 182.235 24.698 182.33 27.3363V35.4736C182.33 38.239 183.283 40.4005 185.219 42.0216L191.282 47.2982C192.964 48.7286 194.964 49.4278 197.313 49.4278H210.645C211.534 49.4278 212.264 49.1418 212.803 48.6014C213.406 47.9975 213.724 47.2346 213.724 46.3764C213.724 46.0585 213.692 45.7406 213.597 45.4545C213.47 45.0731 213.311 44.7235 213.025 44.4056C212.962 44.3102 212.899 44.2467 212.803 44.1831C212.2 43.5792 211.47 43.2613 210.613 43.2613H197.852C196.71 43.2613 195.789 42.9752 195.091 42.3395L189.599 37.6351C188.965 37.0629 188.647 36.3636 188.647 35.5372V27.9085C188.647 26.7006 189.06 25.8106 189.885 25.1113ZM247.054 29.7203H240.737C239.816 29.7203 239.086 30.0064 238.388 30.6421C237.785 31.246 237.467 32.0089 237.467 32.8671V38.2708C237.467 39.0973 237.785 39.8601 238.388 40.4641C239.023 41.068 239.753 41.3859 240.61 41.3859H247.022C247.911 41.3859 248.641 41.068 249.244 40.4323C249.847 39.7966 250.165 39.0337 250.165 38.1755V32.8671C250.165 31.9771 249.847 31.246 249.244 30.6421C248.641 30.0381 247.911 29.7203 247.054 29.7203ZM304.762 44.1195C304.159 43.5156 303.429 43.2295 302.572 43.2295H286.478C285.589 43.2295 284.637 42.8481 283.653 42.0852L281.812 40.5594C280.891 39.8284 280.447 38.9065 280.447 37.8576V36.014H302.508C303.365 36.014 304.095 35.6961 304.699 35.0922C305.302 34.4882 305.619 33.7889 305.619 32.9625V25.1748C305.587 22.2505 304.762 20.0254 303.111 18.5633L300.762 16.3382C298.794 14.4946 296.731 13.5728 294.509 13.5728H285.78C283.685 13.5728 281.812 14.2721 280.098 15.6389L277.463 17.705C276.511 18.4679 275.717 19.5486 275.083 20.9472C274.448 22.3458 274.13 23.4266 274.13 24.253V38.5887C274.13 39.6376 274.416 40.7819 274.987 42.0216C275.559 43.2613 276.289 44.2149 277.178 44.9142L279.971 47.3617C280.542 47.8703 281.431 48.3471 282.637 48.7921C283.844 49.2371 284.986 49.4914 286.066 49.4914H302.54C303.365 49.4914 304.095 49.1736 304.73 48.5696C305.333 47.9657 305.651 47.2664 305.683 46.4399V46.3128C305.651 45.4545 305.365 44.7552 304.762 44.1195ZM280.574 24.7934C280.574 23.808 280.987 23.0133 281.812 22.3776L283.653 20.8519C284.447 20.1844 285.335 19.8347 286.288 19.8347L294.065 19.8665C294.795 19.8665 295.652 20.2479 296.604 21.0108L298.445 22.6001C299.175 23.2041 299.524 24.1259 299.524 25.2702V29.6249H280.574V24.7934Z" fill="black"/>
</svg>
