<svg xmlns="http://www.w3.org/2000/svg" width="583" height="261" fill="none">
  <g clip-path="url(#a)">
    <path fill="#000" d="M201.711 12.312C201.711 5.506 196.218 0 189.41 0c-6.807 0-12.301 5.498-12.301 12.312 0 6.814 5.494 12.313 12.301 12.313 6.808 0 12.301-5.499 12.301-12.313ZM12.301 118.188C5.5 118.188 0 123.686 0 130.5c0 6.814 5.493 12.312 12.3 12.312 6.808 0 12.301-5.498 12.301-12.312 0-6.814-5.493-12.312-12.3-12.312Zm78.72 98.491c-6.808 0-12.302 5.498-12.302 12.312 0 6.814 5.494 12.312 12.301 12.312 6.808 0 12.301-5.498 12.301-12.312 0-6.814-5.493-12.312-12.3-12.312Zm78.719 19.696c-6.808 0-12.301 5.499-12.301 12.313 0 6.814 5.493 12.312 12.301 12.312 6.807 0 12.3-5.498 12.3-12.312 0-6.814-5.493-12.313-12.3-12.313Zm3.039-102.848c-6.785-1.529-9.148-2.86-9.148-5.727 0-2.699 2.378-4.821 7.188-4.821 5.721 0 9.785 3.764 9.785 3.764l4.301-4.852s-5.174-5.133-14.079-5.133c-8.411 0-13.881 5.399-13.881 10.883 0 7.11 5.721 10.297 13.805 11.932 5.797 1.148 8.57 2.775 8.57 6.046 0 2.722-2.742 4.661-7.939 4.661-7.37 0-11.663-6.129-11.663-6.129l-4.733 4.418s5.334 7.925 16.396 7.925c7.932 0 14.724-4.001 14.724-11.035 0-7.689-6.131-10.32-13.311-11.932h-.015Zm-33.331 21.993h6.868v-37.773h-6.868v37.773Zm-28.757-15.286-16.495-41.94h-7.514l23.857 58.861 23.841-58.862h-7.104l-16.578 41.941h-.007Zm32.183-39.241c-2.53 0-4.65 2.122-4.65 4.654 0 2.533 2.12 4.662 4.65 4.662 2.53 0 4.658-2.122 4.658-4.662s-2.12-4.654-4.658-4.654Zm433.265-4.076v25.499s-3.837-5.65-12.171-5.65c-10.211 0-18.295 8.745-18.295 19.864 0 11.118 8.084 19.864 18.295 19.864 9.064 0 12.741-6.457 12.741-6.457v5.475h6.299V96.909h-6.861l-.008.008Zm0 46.663s-3.586 6.541-11.108 6.541c-7.521 0-12.498-6.046-12.498-13.491 0-7.446 4.992-13.492 12.498-13.492 7.507 0 11.108 6.541 11.108 6.541v13.901Zm-196.362-21.164s-3.836-5.65-12.171-5.65c-10.211 0-18.295 8.745-18.295 19.864 0 11.118 8.084 19.864 18.295 19.864 9.064 0 12.749-6.457 12.749-6.457v5.475h6.283V96.909h-6.861v25.507Zm0 21.164s-3.593 6.541-11.107 6.541c-7.515 0-12.491-6.046-12.491-13.491 0-7.446 4.984-13.492 12.491-13.492 7.506 0 11.107 6.541 11.107 6.541v13.901Zm143.338-26.814c-8.167 0-11.594 6.304-11.594 6.304v-5.316h-6.374v37.774h6.86v-26.001s3.267-6.381 9.391-6.381c5.068 0 9.072 2.776 9.072 9.24v23.134h6.86v-24.282c0-9.316-6.693-14.472-14.215-14.472ZM422.894 155.52h6.853v-22.731h23.09v-6.54h-23.09v-21.423h24.586v-6.54h-31.439v57.234ZM210.98 116.766c-11.351 0-18.865 8.836-18.865 19.864 0 11.027 8.251 19.864 19.678 19.864 9.968 0 15.689-7.438 15.689-7.438l-4.331-4.495s-3.92 5.552-11.358 5.552c-7.438 0-12.574-5.308-12.985-11.035h30.467c.084-.897.084-1.467.084-2.205 0-12.183-7.841-20.115-18.379-20.115v.008Zm-12.012 16.593c.494-3.924 3.844-10.221 12.012-10.221 7.605 0 11.434 5.97 11.685 10.221h-23.697Zm126.076-16.593c-9.064 0-14.132 3.848-14.132 3.848l2.857 5.726s4.346-3.194 11.267-3.194c3.024 0 9.558 1.065 9.558 8.913v2.046s-4.414-3.111-11.359-3.111c-8.494 0-14.944 5.232-14.944 12.586 0 8.176 7.271 12.921 14.048 12.921 8.578 0 12.832-6.456 12.832-6.456v5.475h6.291v-24.853c0-7.034-5.31-13.901-16.418-13.901Zm9.558 27.963s-4.08 5.726-10.782 5.726c-4.247 0-8.661-1.962-8.661-6.875 0-3.924 3.685-6.867 9.566-6.867 5.88 0 9.877 2.7 9.877 2.7v5.316Zm152.113-.814s-3.024 6.206-9.391 6.206c-5.068 0-9.064-2.776-9.064-9.233v-23.134h-6.868v24.283c0 9.316 6.693 14.464 14.215 14.464 8.167 0 11.601-6.783 11.601-6.783v5.81h6.367v-37.774h-6.86v26.161ZM266.017 123.23s-3.677-6.464-12.741-6.464c-10.211 0-18.295 8.745-18.295 19.864 0 11.118 8.084 19.864 18.295 19.864 6.944 0 10.865-4.001 12.172-5.727v5.232c0 8.502-4.985 12.921-12.985 12.921-8 0-12.338-5.962-12.338-5.962l-4.164 5.148s6.124 7.194 16.502 7.194c10.941 0 19.845-6.54 19.845-19.62v-37.933h-6.298v5.475l.007.008Zm-.569 20.518s-3.594 6.373-11.108 6.373c-7.514 0-12.498-6.046-12.498-13.491 0-7.446 4.817-13.492 12.498-13.492 7.681 0 11.108 6.381 11.108 6.381v14.229Zm23.682-20.199v-5.802h-6.375v37.773h6.853v-26.001s2.181-6.381 8.943-6.381c3.274 0 5.25 1.202 5.25 1.202l1.329-6.593s-2.37-.989-5.47-.989c-7.803 0-10.53 6.784-10.53 6.784v.007Z"/>
  </g>
  <defs>
    <clipPath id="a">
      <path fill="#fff" d="M0 0h583v261H0z"/>
    </clipPath>
  </defs>
</svg>
